<svg fill="none" height="283" viewBox="0 0 368 283" width="368" xmlns="http://www.w3.org/2000/svg"><path d="m328.23 107.313c5.31-1.229 8.624-6.525 7.395-11.838-1.224-5.308-6.523-8.618-11.832-7.392-4.11.95-7.003 4.202-7.54 8.146 0 0-87.451 20.319-92.696 21.624-1.548-3.586-5.82-22.201-10.059-35.136l-21.499-77.41c-.648-2.603-6.165-4.340997-10.056-4.340997-3.899 0-9.088 1.738997-9.734 3.906997l-39.599 133.981c-10.657 2.344-18.12 3.982-18.12 3.982-2.214-3.3-6.214-5.224-10.319-4.277-5.3081 1.229-8.6191 6.525-7.3951 11.838 1.229 5.307 6.5251 8.618 11.8351 7.392 3.981-.92 6.893-3.898 7.558-7.687 0 0 5.607-1.24 14.035-3.106l-29.392 99.449c-1.6241 5.216-5.1951 8.259-9.0861 9.128l-8.117 2.169c-2.921.869-5.189 2.613-5.189 5.216 0 2.175 2.267 3.042 5.189 3.042h66.8541c2.914 0 5.19-.867 5.19-3.042 0-2.602-2.275-4.776-5.19-5.216l-6.171-.87c-6.488-.866-10.705-4.778-10.705-12.594 0-2.173.649-5.219 1.299-7.387l25.455-96.571c21.703-4.811 43.859-9.731 46.919-10.448.022.049.042.089.063.136l24.592 101.234c.974 3.472 1.944 8.683 1.944 12.166 0 6.948-3.89 10.429-8.76 12.164l-6.163 2.169c-.475.141-.924.314-1.358.502-2.974-.358-6.157-.838-9.509-1.323-9.986-1.446-41.685-14.408-38.959-18.105 2.727-3.7 13.185-.488 13.185-.488-16.808-6.349-23.907-6.874-32.536-19.082-6.837-9.673 10.424 31.861 10.424 31.861s2.691-1.646 2.165-6.125c-.52-4.483 31.714 37.681 79.227 30.796 11.387-1.65 8.918 8.087 15.317 7.083 6.192-1.905-.347-9.799 10.606-13.312 45.719-14.65 56.213-66.686 57.707-62.431 1.495 4.261 4.632 4.556 4.632 4.556s-2.691-44.896-4.594-33.206c-2.404 14.756-8.554 18.344-20.88 31.419 0 0 7.992-7.47 12.062-5.342 4.073 2.128-18.735 27.682-27.077 33.361-13.004 8.857-22.86 16.077-30.312 8.701-.064-.197-.131-.393-.189-.593l-33.575-120.889 92.651-21.633c2.277 3.038 6.379 4.728 10.307 3.822zm-165.767 24.964 21.098-80.043c.649-2.173 4.22-2.173 4.869 0l17.107 70.423c-3.367.829-22.932 5.173-43.074 9.62z" fill="#b1c6e1"/><g fill="#fff"><path d="m113.029 180.399v26.442h-9.044l-14.5289-.373v-44.446h21.1799v7.315c3.655-5.766 10.266-8.471 19.941-8.458 14.913.107 22.431 5.125 22.554 15.05v30.912h-23.074v-26.442c.102-6.755-16.923-6.857-17.028 0z"/><path d="m200.49 145.557h4.054 16.63v61.285h-20.684l-.003-6.989c-4.647 4.947-11.489 8.073-19.119 8.073-14.006 0-25.361-10.531-25.361-23.522 0-12.992 11.355-23.523 25.361-23.523 6.261 0 11.993 2.106 16.42 5.594v-20.917h2.702zm-22.329 39.522c0 5.914 4.795 10.706 10.708 10.706 5.914 0 10.705-4.792 10.705-10.706 0-5.913-4.791-10.708-10.705-10.708-5.913-.001-10.708 4.795-10.708 10.708z"/><path d="m250.052 185.39v21.451h-2.182-4.47-16.635v-44.819h21.104v7.628c4.05-6.432 11.041-9.493 20.974-9.186v18.065c-11.292-.185-18.687 1.249-18.791 6.861z"/><path d="m296.268 162.023h-23.161v44.819h23.161z"/><path d="m296.268 143.459h-23.161v12.989h23.161z"/><path d="m341.559 193.627 23.037.027c-5.34 8.393-17.451 14.271-31.553 14.271-18.876 0-34.178-10.531-34.178-23.522 0-12.992 15.302-23.523 34.178-23.523 18.878 0 34.177 10.531 34.177 23.523 0 1.271.209 2.753-.429 3.734l-22.077.021-23.268-.171c1.54 5.36 6.177 9.253 11.661 9.253 3.257.001 6.217-1.375 8.452-3.613zm2.814-14.577c-1.838-4.749-6.189-8.087-11.266-8.087s-9.432 3.338-11.27 8.087z"/><path d="m.748047 206.842 28.837953-61.285h26.997l28.575 61.285h-26.214l-2.863-7.797h-26.49l-3.153 7.797zm50.521953-20.904-7.792-21.234-8.588 21.234z"/></g></svg>