<svg id="Layer_2" data-name="Layer 2" xmlns="http://www.w3.org/2000/svg" viewBox="0 0 572.47 281.97"><defs><style>.cls-1{fill:#85a6cf;}.cls-2,.cls-3{fill:#fff;}.cls-3{fill-rule:evenodd;}</style></defs><title>andrie_logo-site</title><path class="cls-1" d="M398.62,122.24A9.87,9.87,0,0,0,394.19,103a9.69,9.69,0,0,0-7.54,8.15S299.2,131.48,294,132.78c-1.55-3.59-5.82-22.2-10.06-35.14l-21.5-77.41c-0.65-2.6-6.17-4.34-10.06-4.34s-9.09,1.74-9.73,3.91l-39.6,134-18.12,4a9.79,9.79,0,1,0-5.88,15,9.67,9.67,0,0,0,7.56-7.69l14-3.11-29.39,99.45c-1.62,5.22-5.19,8.26-9.09,9.13L154,272.67c-2.92.87-5.19,2.61-5.19,5.22,0,2.17,2.27,3,5.19,3h66.85c2.91,0,5.19-.87,5.19-3,0-2.6-2.28-4.78-5.19-5.22l-6.17-.87C208.2,270.93,204,267,204,259.21a29.37,29.37,0,0,1,1.3-7.39l25.45-96.57c21.7-4.81,43.86-9.73,46.92-10.45l0.06,0.14,24.59,101.23a52.7,52.7,0,0,1,1.94,12.17c0,6.95-3.89,10.43-8.76,12.16l-6.16,2.17a12.12,12.12,0,0,0-1.36.5c-3-.36-6.16-0.84-9.51-1.32-10-1.45-41.68-14.41-39-18.11s13.19-.49,13.19-0.49c-16.81-6.35-23.91-6.87-32.54-19.08C213.32,224.5,230.58,266,230.58,266s2.69-1.65,2.16-6.12,31.71,37.68,79.23,30.8c11.39-1.65,8.92,8.09,15.32,7.08,6.19-1.91-.35-9.8,10.61-13.31,45.72-14.65,56.21-66.69,57.71-62.43s4.63,4.56,4.63,4.56-2.69-44.9-4.59-33.21c-2.4,14.76-8.55,18.34-20.88,31.42,0,0,8-7.47,12.06-5.34s-18.74,27.68-27.08,33.36c-13,8.86-22.86,16.08-30.31,8.7-0.06-.2-0.13-0.39-0.19-0.59L295.67,140.05l92.65-21.63A10.22,10.22,0,0,0,398.62,122.24ZM254,67.16c0.65-2.17,4.22-2.17,4.87,0l17.11,70.42c-3.37.83-22.93,5.17-43.07,9.62Z" transform="translate(-17.33 -15.89)"/><path class="cls-2" d="M129.61,195.33v26.44h-9L106,221.4V176.95h21.18v7.31c3.66-5.77,10.27-8.47,19.94-8.46q22.37,0.16,22.55,15v30.91H146.64V195.33C146.74,188.57,129.72,188.47,129.61,195.33Z" transform="translate(-17.33 -15.89)"/><path class="cls-2" d="M217.07,160.48h20.68v61.28H217.07v-7A26.16,26.16,0,0,1,198,222.85c-14,0-25.36-10.53-25.36-23.52s11.35-23.52,25.36-23.52a26.48,26.48,0,0,1,16.42,5.59V160.48h2.7ZM194.74,200a10.71,10.71,0,1,0,10.71-10.71A10.71,10.71,0,0,0,194.74,200Z" transform="translate(-17.33 -15.89)"/><path class="cls-2" d="M266.63,200.32v21.45H243.35V176.95h21.1v7.63q6.07-9.65,21-9.19v18.07C274.13,193.27,266.74,194.7,266.63,200.32Z" transform="translate(-17.33 -15.89)"/><rect class="cls-2" x="272.36" y="161.06" width="23.16" height="44.82"/><rect class="cls-2" x="272.36" y="142.49" width="23.16" height="12.99"/><path class="cls-2" d="M358.14,208.55l23,0c-5.34,8.39-17.45,14.27-31.55,14.27-18.88,0-34.18-10.53-34.18-23.52s15.3-23.52,34.18-23.52,34.18,10.53,34.18,23.52c0,1.27.21,2.75-.43,3.73l-22.08,0L338,202.92a12.35,12.35,0,0,0,11.66,9.25A11.91,11.91,0,0,0,358.14,208.55ZM361,194a11.89,11.89,0,0,0-22.54,0H361Z" transform="translate(-17.33 -15.89)"/><rect class="cls-2" x="391.63" y="144.22" width="26.8" height="61.66"/><path class="cls-2" d="M462.45,195.33v26.44h-9l-14.53-.37V176.95h21.18v7.31c3.65-5.77,10.26-8.47,19.94-8.46q22.37,0.16,22.56,15v30.91H479.48V195.33C479.58,188.57,462.55,188.47,462.45,195.33Z" transform="translate(-17.33 -15.89)"/><path class="cls-3" d="M506.09,198.79c0-16.85,14.93-23,33.35-23,19.17,0,30.08,6.27,32.72,17.34H548.62a10.55,10.55,0,0,0-9.3-6.13c-5.91,0-10.7,5.42-10.7,12.11s4.79,12.11,10.7,12.11c4.39,0,8.16-3,9.81-7.28h23.13c-2.79,13-16.42,17.81-32.83,17.81C521,221.77,506.09,217,506.09,198.79Z" transform="translate(-17.33 -15.89)"/><rect class="cls-2" x="557.74" y="192.12" width="14.74" height="13.76"/><path class="cls-2" d="M17.33,221.77l28.84-61.28h27l28.58,61.28H75.53L72.66,214H46.17L43,221.77H17.33Zm50.52-20.9-7.79-21.23-8.59,21.23H67.85Z" transform="translate(-17.33 -15.89)"/></svg>