<?xml version="1.0" encoding="utf-8"?>
<!-- Generator: Adobe Illustrator 21.1.0, SVG Export Plug-In . SVG Version: 6.00 Build 0)  -->
<svg version="1.1" xmlns="http://www.w3.org/2000/svg" xmlns:xlink="http://www.w3.org/1999/xlink" x="0px" y="0px"
	 viewBox="0 0 450 394" enable-background="new 0 0 450 394" xml:space="preserve">
<g id="Layer_1">
	<g display="none">
		<path display="inline" fill="#FFFFFF" d="M93.616,179.243c-1.047,5.984-5.65,10.692-11.942,12.146
			c-8.389,1.938-16.76-3.292-18.697-11.681c-1.936-8.39,3.295-16.761,11.684-18.699c6.484-1.498,12.806,1.539,16.304,6.754
			c0,0,156.802-34.413,143.926-31.991c-0.263-8.901-1.104-17.45,5.271-22.938c-6.859-2.277-12.024-7.642-13.708-14.934
			c-2.627-11.384,6.756-32.518,16.943-25.628c8.349,5.648,16.274,47.681,19.906,56.04c-9.511,2.047,146.452-34.191,146.452-34.191
			c0.851-6.232,5.423-11.37,11.913-12.87c8.39-1.938,16.76,3.292,18.696,11.681c1.936,8.389-3.294,16.761-11.684,18.699
			c-6.208,1.435-12.689-1.236-16.276-6.031l-146.525,34.206l5.282,19.222c0,0,31.304,146.784,46.131,180.427
			c12.4,28.135,30.101,14.865,55.24-2.257c13.18-8.976,49.219-49.352,42.786-52.714c-6.433-3.363-19.062,8.445-19.062,8.445
			c19.475-20.662,29.191-26.327,32.988-49.644c3.009-18.474,7.265,52.467,7.265,52.467s-4.96-0.471-7.321-7.198
			c-2.36-6.728-18.941,75.49-91.177,98.642c-17.312,5.549-6.979,18.023-16.764,21.032c-10.113,1.586-6.209-13.798-24.201-11.191
			c-75.069,10.878-126.006-55.744-125.179-48.663c0.826,7.084-3.422,9.682-3.422,9.682s-27.27-65.625-16.469-50.34
			c13.633,19.29,24.847,20.12,51.405,30.147c0,0-16.525-5.071-20.832,0.772c-4.309,5.844,45.778,26.323,61.557,28.611
			c30.099,4.359,51.825,8.521,50.638-22.204c-1.301-33.64-24.064-140.383-41.657-181.574c-8.831-1.761-11.666-7.533-15.555-16.216
			C249.003,144.876,93.616,179.243,93.616,179.243z"/>
		<path display="inline" fill-rule="evenodd" clip-rule="evenodd" fill="#FFFFFF" d="M345.367,376.784
			c0,3.438-3.592,4.809-8.209,4.809h-75.887c-4.613,0-8.205-1.37-8.205-4.809c0-4.115,3.592-6.871,8.205-8.241l9.743-3.427
			c7.69-2.744,13.841-8.244,13.841-19.224c0-5.499-1.533-13.732-3.075-19.222l-68.71-282.843c-1.025-3.435-6.665-3.435-7.69,0
			l-76.91,291.769c-1.025,3.425-2.05,8.234-2.05,11.669c0,12.351,6.665,18.531,16.915,19.902l9.749,1.375
			c4.608,0.689,8.2,4.126,8.2,8.241c0,3.438-3.592,4.809-8.2,4.809H47.454c-4.616,0-8.199-1.37-8.199-4.809
			c0-4.115,3.583-6.871,8.199-8.241l12.823-3.427c6.15-1.373,11.791-6.183,14.357-14.424L187.439-31.008
			c1.024-3.425,9.225-6.17,15.382-6.17c6.149,0,14.865,2.745,15.89,6.862l105.63,380.327c2.559,8.923,9.225,16.478,13.842,18.532
			C343.316,371.297,345.367,374.042,345.367,376.784z"/>
	</g>
	<g display="none">
		<path display="inline" fill="#FFFFFF" d="M-94.807,467.359h2.046l3.055,8.641h-1.957l-0.569-1.773h-3.182L-95.999,476h-1.892
			L-94.807,467.359z M-94.922,472.734h2.211l-1.09-3.399L-94.922,472.734z"/>
		<path display="inline" fill="#FFFFFF" d="M-83.594,469.98c0.418,0.346,0.627,0.919,0.627,1.72v4.3h-1.711v-3.883
			c0-0.336-0.045-0.594-0.134-0.773c-0.163-0.328-0.473-0.492-0.93-0.492c-0.562,0-0.947,0.24-1.157,0.721
			c-0.108,0.254-0.163,0.578-0.163,0.972V476h-1.672v-6.375h1.617v0.934c0.214-0.329,0.416-0.565,0.607-0.711
			c0.342-0.258,0.776-0.387,1.301-0.387C-84.55,469.461-84.012,469.634-83.594,469.98z"/>
		<path display="inline" fill="#FFFFFF" d="M-78.032,469.716c0.3,0.171,0.544,0.406,0.731,0.707v-3.048h1.695V476h-1.625v-0.882
			c-0.238,0.379-0.509,0.655-0.813,0.827c-0.304,0.172-0.683,0.258-1.135,0.258c-0.745,0-1.373-0.302-1.881-0.906
			c-0.509-0.604-0.764-1.378-0.764-2.324c0-1.09,0.251-1.948,0.752-2.573c0.501-0.626,1.171-0.939,2.01-0.939
			C-78.676,469.461-78.332,469.546-78.032,469.716z M-77.622,474.27c0.246-0.352,0.368-0.808,0.368-1.366
			c0-0.781-0.197-1.341-0.59-1.677c-0.241-0.203-0.521-0.305-0.841-0.305c-0.486,0-0.844,0.185-1.071,0.554
			c-0.228,0.37-0.342,0.828-0.342,1.375c0,0.59,0.116,1.062,0.348,1.416c0.231,0.353,0.582,0.53,1.054,0.53
			C-78.225,474.797-77.867,474.621-77.622,474.27z"/>
		<path display="inline" fill="#FFFFFF" d="M-70.528,469.465c0.021,0.003,0.069,0.007,0.143,0.012v1.711
			c-0.105-0.013-0.2-0.021-0.282-0.025c-0.083-0.004-0.149-0.006-0.2-0.006c-0.673,0-1.125,0.219-1.356,0.656
			c-0.129,0.246-0.194,0.625-0.194,1.136V476h-1.68v-6.391h1.594v1.117c0.258-0.426,0.483-0.717,0.674-0.873
			c0.313-0.262,0.719-0.393,1.22-0.393C-70.576,469.461-70.55,469.462-70.528,469.465z"/>
		<path display="inline" fill="#FFFFFF" d="M-67.691,468.852h-1.695v-1.539h1.695V468.852z M-69.387,469.609h1.695V476h-1.695
			V469.609z"/>
		<path display="inline" fill="#FFFFFF" d="M-61.92,469.737c0.445,0.199,0.813,0.515,1.104,0.945
			c0.262,0.38,0.431,0.821,0.509,1.322c0.045,0.294,0.063,0.717,0.055,1.268h-4.651c0.026,0.643,0.248,1.094,0.667,1.353
			c0.255,0.161,0.561,0.241,0.919,0.241c0.38,0,0.689-0.098,0.926-0.294c0.129-0.105,0.244-0.253,0.343-0.44h1.707
			c-0.045,0.379-0.251,0.764-0.619,1.154c-0.572,0.621-1.373,0.932-2.401,0.932c-0.85,0-1.599-0.262-2.248-0.787
			c-0.649-0.524-0.974-1.377-0.974-2.56c0-1.108,0.293-1.957,0.879-2.548c0.586-0.591,1.348-0.887,2.283-0.887
			C-62.866,469.438-62.365,469.537-61.92,469.737z M-64.421,471.179c-0.236,0.245-0.384,0.575-0.444,0.993h2.875
			c-0.03-0.445-0.179-0.783-0.444-1.014c-0.267-0.23-0.596-0.346-0.99-0.346C-63.853,470.812-64.185,470.935-64.421,471.179z"/>
		<path display="inline" fill="#FFFFFF" d="M-54.287,476h-1.797v-8.641h1.797V476z"/>
		<path display="inline" fill="#FFFFFF" d="M-47.588,469.98c0.418,0.346,0.627,0.919,0.627,1.72v4.3h-1.711v-3.883
			c0-0.336-0.044-0.594-0.134-0.773c-0.163-0.328-0.473-0.492-0.93-0.492c-0.562,0-0.947,0.24-1.157,0.721
			c-0.108,0.254-0.163,0.578-0.163,0.972V476h-1.672v-6.375h1.617v0.934c0.214-0.329,0.416-0.565,0.607-0.711
			c0.342-0.258,0.776-0.387,1.301-0.387C-48.544,469.461-48.006,469.634-47.588,469.98z"/>
		<path display="inline" fill="#FFFFFF" d="M-41.584,471.906c-0.031-0.238-0.112-0.453-0.241-0.645
			c-0.188-0.258-0.48-0.387-0.875-0.387c-0.563,0-0.949,0.279-1.157,0.838c-0.11,0.296-0.165,0.689-0.165,1.18
			c0,0.468,0.055,0.844,0.164,1.128c0.199,0.533,0.575,0.8,1.126,0.8c0.391,0,0.668-0.105,0.833-0.317
			c0.164-0.212,0.264-0.486,0.299-0.823h1.703c-0.039,0.508-0.223,0.989-0.551,1.442c-0.524,0.731-1.299,1.097-2.328,1.097
			c-1.028,0-1.784-0.305-2.269-0.914c-0.485-0.609-0.727-1.399-0.727-2.37c0-1.096,0.268-1.948,0.804-2.559
			c0.536-0.61,1.275-0.915,2.218-0.915c0.802,0,1.458,0.18,1.969,0.539c0.51,0.36,0.813,0.995,0.907,1.906H-41.584z"/>
		<path display="inline" fill="#FFFFFF" d="M-38.762,474.25h1.773V476h-1.773V474.25z"/>
	</g>
</g>
<g id="Layer_2">
	<g>
		<path fill="none" d="M224.561,97.234l-21.098,80.043c20.142-4.447,39.707-8.79,43.075-9.62L229.43,97.234
			C228.781,95.061,225.21,95.061,224.561,97.234z"/>
		<path fill="#B1C6E1" d="M369.23,152.313c5.31-1.229,8.624-6.525,7.395-11.838c-1.224-5.308-6.523-8.618-11.832-7.392
			c-4.11,0.95-7.003,4.202-7.54,8.146c0,0-87.451,20.319-92.696,21.624c-1.548-3.586-5.82-22.201-10.059-35.136l-21.499-77.41
			c-0.648-2.603-6.165-4.341-10.056-4.341c-3.899,0-9.088,1.739-9.734,3.907L173.61,183.854c-10.657,2.344-18.12,3.982-18.12,3.982
			c-2.214-3.3-6.214-5.224-10.319-4.277c-5.308,1.229-8.619,6.525-7.395,11.838c1.229,5.307,6.525,8.618,11.835,7.392
			c3.981-0.92,6.893-3.898,7.558-7.687c0,0,5.607-1.24,14.035-3.106l-29.392,99.449c-1.624,5.216-5.195,8.259-9.086,9.128
			l-8.117,2.169c-2.921,0.869-5.189,2.613-5.189,5.216c0,2.175,2.267,3.042,5.189,3.042h66.854c2.914,0,5.19-0.867,5.19-3.042
			c0-2.602-2.275-4.776-5.19-5.216l-6.171-0.87c-6.488-0.866-10.705-4.778-10.705-12.594c0-2.173,0.649-5.219,1.299-7.387
			l25.455-96.571c21.703-4.811,43.859-9.731,46.919-10.448c0.022,0.049,0.042,0.089,0.063,0.136l24.592,101.234
			c0.974,3.472,1.944,8.683,1.944,12.166c0,6.948-3.89,10.429-8.76,12.164l-6.163,2.169c-0.475,0.141-0.924,0.314-1.358,0.502
			c-2.974-0.358-6.157-0.838-9.509-1.323c-9.986-1.446-41.685-14.408-38.959-18.105c2.727-3.7,13.185-0.488,13.185-0.488
			c-16.808-6.349-23.907-6.874-32.536-19.082c-6.837-9.673,10.424,31.861,10.424,31.861s2.691-1.646,2.165-6.125
			c-0.52-4.483,31.714,37.681,79.227,30.796c11.387-1.65,8.918,8.087,15.317,7.083c6.192-1.905-0.347-9.799,10.606-13.312
			c45.719-14.65,56.213-66.686,57.707-62.431c1.495,4.261,4.632,4.556,4.632,4.556s-2.691-44.896-4.594-33.206
			c-2.404,14.756-8.554,18.344-20.88,31.419c0,0,7.992-7.47,12.062-5.342c4.073,2.128-18.735,27.682-27.077,33.361
			c-13.004,8.857-22.86,16.077-30.312,8.701c-0.064-0.197-0.131-0.393-0.189-0.593l-33.575-120.889l92.651-21.633
			C361.2,151.529,365.302,153.219,369.23,152.313z M203.463,177.277l21.098-80.043c0.649-2.173,4.22-2.173,4.869,0l17.107,70.423
			C243.17,168.486,223.605,172.83,203.463,177.277z"/>
	</g>
	<g>
		<path fill="#FFFFFF" d="M154.029,225.399v26.442h-9.044l-14.529-0.373v-44.446h21.18v7.315c3.655-5.766,10.266-8.471,19.941-8.458
			c14.913,0.107,22.431,5.125,22.554,15.05v30.912h-23.074v-26.442C171.159,218.644,154.134,218.542,154.029,225.399z"/>
		<path fill="#FFFFFF" d="M241.49,190.557h4.054h16.63v61.285H241.49l-0.003-6.989c-4.647,4.947-11.489,8.073-19.119,8.073
			c-14.006,0-25.361-10.531-25.361-23.522c0-12.992,11.355-23.523,25.361-23.523c6.261,0,11.993,2.106,16.42,5.594v-20.917H241.49z
			 M219.161,230.079c0,5.914,4.795,10.706,10.708,10.706c5.914,0,10.705-4.792,10.705-10.706c0-5.913-4.791-10.708-10.705-10.708
			C223.956,219.37,219.161,224.166,219.161,230.079z"/>
		<path fill="#FFFFFF" d="M291.052,230.39v21.451h-2.182h-4.47h-16.635v-44.819h21.104v7.628c4.05-6.432,11.041-9.493,20.974-9.186
			v18.065C298.551,223.344,291.156,224.778,291.052,230.39z"/>
		<rect x="314.107" y="207.023" fill="#FFFFFF" width="23.161" height="44.819"/>
		<rect x="314.107" y="188.459" fill="#FFFFFF" width="23.161" height="12.989"/>
		<path fill="#FFFFFF" d="M382.559,238.627l23.037,0.027c-5.34,8.393-17.451,14.271-31.553,14.271
			c-18.876,0-34.178-10.531-34.178-23.522c0-12.992,15.302-23.523,34.178-23.523c18.878,0,34.177,10.531,34.177,23.523
			c0,1.271,0.209,2.753-0.429,3.734l-22.077,0.021l-23.268-0.171c1.54,5.36,6.177,9.253,11.661,9.253
			C377.364,242.241,380.324,240.865,382.559,238.627z M385.373,224.05c-1.838-4.749-6.189-8.087-11.266-8.087
			c-5.077,0-9.432,3.338-11.27,8.087H385.373z"/>
		<path fill="#FFFFFF" d="M41.748,251.842l28.838-61.285h26.997l28.575,61.285H99.944l-2.863-7.797h-26.49l-3.153,7.797H41.748z
			 M92.27,230.938l-7.792-21.234l-8.588,21.234H92.27z"/>
	</g>
</g>
</svg>
