
<svg width="35px" height="35px" viewBox="0 0 35 35" version="1.1" xmlns="http://www.w3.org/2000/svg" xmlns:xlink="http://www.w3.org/1999/xlink">
    <!-- Generator: Sketch 43.2 (39069) - http://www.bohemiancoding.com/sketch -->
    <desc>Created with Sketch.</desc>
    <defs></defs>
    <g id="Page-1" stroke="none" stroke-width="1" fill="none" fill-rule="evenodd">
        <g id="facebook-circle" fill-rule="nonzero">
            <path d="M17.1,34.9 C26.5,34.9 34.1,27.3 34.1,17.9 C34.1,8.5 26.5,0.9 17.1,0.9 C7.7,0.9 0.1,8.5 0.1,17.9 C0.1,27.3 7.7,34.9 17.1,34.9" id="Shape" fill="#1187C9"></path>
            <path d="M13,15 L14.8,15 L14.8,13.3 C14.8,12.5 14.8,11.4 15.4,10.7 C16,9.9 16.8,9.4 18.1,9.4 C20.3,9.4 21.3,9.7 21.3,9.7 L20.9,12.3 C20.9,12.3 20.2,12.1 19.5,12.1 C18.8,12.1 18.2,12.3 18.2,13 L18.2,15 L21,15 L20.8,17.5 L18.2,17.5 L18.2,26.3 L14.9,26.3 L14.9,17.5 L13,17.5 L13,15 Z" id="Shape" fill="#FFFFFF"></path>
        </g>
    </g>
</svg>