<?xml version="1.0" encoding="utf-8"?>
<!-- Generator: Adobe Illustrator 21.1.0, SVG Export Plug-In . SVG Version: 6.00 Build 0)  -->
<svg version="1.1" id="Layer_1" xmlns="http://www.w3.org/2000/svg" xmlns:xlink="http://www.w3.org/1999/xlink" x="0px" y="0px"
	 viewBox="0 0 72.2 72.2" style="enable-background:new 0 0 72.2 72.2;" xml:space="preserve">
<style type="text/css">
	.st0{fill:#1187C9;}
	.st1{fill:#FFFFFF;}
</style>
<g>
	<path class="st0" d="M36.1,52.5c9.4,0,17-7.6,17-17c0-9.4-7.6-17-17-17c-9.4,0-17,7.6-17,17C19.1,44.9,26.7,52.5,36.1,52.5"/>
	<path class="st1" d="M31.4,41.8H28V31.2h3.3V41.8z M29.6,29.9L29.6,29.9c-1.2,0-2-0.8-2-1.8c0-1,0.8-1.8,2-1.8c1.2,0,2,0.8,2,1.8
		C31.6,29.1,30.9,29.9,29.6,29.9z M44.6,41.8h-3.8v-5.5c0-1.4-0.6-2.4-1.9-2.4c-1,0-1.5,0.7-1.8,1.3c-0.1,0.2-0.1,0.5-0.1,0.9v5.7
		h-3.7c0,0,0-9.7,0-10.6h3.7v1.7c0.2-0.7,1.4-1.8,3.3-1.8c2.4,0,4.2,1.5,4.2,4.8V41.8z"/>
</g>
</svg>
